<svg xmlns="http://www.w3.org/2000/svg" viewBox="0 0 750 500"><defs><style>.cls-1{isolation:isolate;}.cls-2{opacity:0.1;mix-blend-mode:multiply;}.cls-3{fill:#303c44;}.cls-4{fill:#3e4f59;}.cls-5{fill:#374651;}.cls-6{fill:#f4f0df;}.cls-7{fill:#f4f3ed;}.cls-8{fill:#b9c6d6;}.cls-9{fill:#f2f2f2;}</style></defs><title>seguranca</title><g class="cls-1"><g id="Artboard_2" data-name="Artboard 2"><g class="cls-2"><path d="M444.77,163a33.56,33.56,0,0,1,1.12-8.62c-20.73-3.54-48.33-6.63-63.56-6.63-14.75,0-41.12,2.9-61.59,6.3A33.62,33.62,0,0,1,290,196.54c2.19,29.69,9.84,70.06,18.86,91.85,14.94,36.11,66.6,67.85,73.45,73.46,6.85-5.61,58.51-37.35,73.45-73.46,9-21.83,16.7-62.31,18.87-92A33.61,33.61,0,0,1,444.77,163Z"/><path d="M382.33,164.52c-9.92,0-26.88,1.52-43.85,3.82a50.4,50.4,0,0,1-30.34,41c1.58,13.38,4,27.43,6.8,40.13,2.87,13,6.18,24.53,9.47,32.48,9.95,24,42,47.91,57.92,59.21l.05,0V164.52Z"/><path d="M428.28,168.63c-17.55-2.44-35.59-4.1-45.9-4.11V341.15c16-11.32,47.93-35.17,57.87-59.18,3.3-8,6.6-19.51,9.47-32.48a411.12,411.12,0,0,0,6.9-41A50.34,50.34,0,0,1,428.28,168.63Z"/></g><path class="cls-3" d="M440,158.19a33.64,33.64,0,0,1,1.12-8.63c-20.73-3.53-48.34-6.63-63.56-6.63-14.75,0-41.12,2.91-61.59,6.3a33.62,33.62,0,0,1-30.72,42.52c2.19,29.7,9.84,70.07,18.86,91.86,14.94,36.11,66.6,67.85,73.45,73.46,6.84-5.61,58.51-37.35,73.45-73.46,9-21.83,16.7-62.32,18.87-92A33.61,33.61,0,0,1,440,158.19Z"/><path class="cls-4" d="M377.55,159.74c-9.92,0-26.88,1.52-43.86,3.82a50.37,50.37,0,0,1-30.33,41c1.58,13.38,4,27.43,6.8,40.13,2.87,13,6.18,24.53,9.47,32.48,9.95,24,42,47.91,57.92,59.21l.05,0V159.74Z"/><path class="cls-5" d="M423.49,163.85c-17.54-2.45-35.58-4.1-45.89-4.11V336.36c16-11.31,47.93-35.16,57.87-59.17,3.29-8,6.6-19.51,9.47-32.48a411.61,411.61,0,0,0,6.9-41A50.39,50.39,0,0,1,423.49,163.85Z"/><path class="cls-6" d="M397.24,227.7H363.1a4.84,4.84,0,0,0-4.83,4.83V261.2A4.84,4.84,0,0,0,363.1,266h34.14a4.84,4.84,0,0,0,4.83-4.82V232.53A4.84,4.84,0,0,0,397.24,227.7Z"/><path class="cls-7" d="M394.93,227.7l-4.26,0V213.43a8.52,8.52,0,0,0-8.51-8.52h-4.11a8.52,8.52,0,0,0-8.51,8.52v14.25h-4.26V213.43a12.79,12.79,0,0,1,12.77-12.77h4.11c7,0,12.77,5.73,12.77,14.23Z"/><path class="cls-8" d="M388.26,254.51,383,245.45a6.13,6.13,0,1,0-5.7,0l-5.24,9.06c-.58,1-.1,1.83,1.06,1.83H387.2C388.36,256.34,388.84,255.52,388.26,254.51Z"/></g><g id="Designed_by_Freepik" data-name="Designed by Freepik"><path class="cls-9" d="M301.74,483.77v-.17a4,4,0,0,1-.68.64,2.49,2.49,0,0,1-.72.38,2.61,2.61,0,0,1-.85.13,2.58,2.58,0,0,1-1.14-.26,2.65,2.65,0,0,1-.9-.74,3.45,3.45,0,0,1-.58-1.13,4.86,4.86,0,0,1-.19-1.41,3.68,3.68,0,0,1,.78-2.49,2.6,2.6,0,0,1,2.05-.89,2.88,2.88,0,0,1,1.24.25,3.46,3.46,0,0,1,1,.78v-2.51a1.29,1.29,0,0,1,.21-.8.73.73,0,0,1,.59-.26.75.75,0,0,1,.6.24,1.11,1.11,0,0,1,.21.73v7.51a1,1,0,0,1-.23.73.78.78,0,0,1-1.15,0A1,1,0,0,1,301.74,483.77Zm-3.35-2.5a3,3,0,0,0,.21,1.18,1.68,1.68,0,0,0,.59.73,1.42,1.42,0,0,0,.82.25,1.56,1.56,0,0,0,.82-.23,1.58,1.58,0,0,0,.59-.72,2.88,2.88,0,0,0,.22-1.21,2.81,2.81,0,0,0-.22-1.17,1.62,1.62,0,0,0-.6-.75,1.43,1.43,0,0,0-.82-.26,1.4,1.4,0,0,0-.84.27,1.8,1.8,0,0,0-.57.76A2.92,2.92,0,0,0,298.39,481.27Z"/><path class="cls-9" d="M309.25,481.7h-3.33a2.19,2.19,0,0,0,.23,1,1.59,1.59,0,0,0,1.44.9,2.45,2.45,0,0,0,.56-.07,2,2,0,0,0,.49-.23,3.61,3.61,0,0,0,.44-.33l.51-.47a.56.56,0,0,1,.38-.11.58.58,0,0,1,.42.14.52.52,0,0,1,.17.41,1.17,1.17,0,0,1-.19.54,2.25,2.25,0,0,1-.54.59,3.3,3.3,0,0,1-.92.47,4.09,4.09,0,0,1-1.27.19,3.42,3.42,0,0,1-2.55-.94,3.47,3.47,0,0,1-.91-2.54,4.24,4.24,0,0,1,.22-1.4,3.09,3.09,0,0,1,.66-1.11,2.83,2.83,0,0,1,1.06-.71,3.88,3.88,0,0,1,1.4-.24,3.33,3.33,0,0,1,1.71.42,2.73,2.73,0,0,1,1.07,1.09,2.83,2.83,0,0,1,.36,1.36.86.86,0,0,1-.37.83A2.27,2.27,0,0,1,309.25,481.7Zm-3.33-1H309a2.06,2.06,0,0,0-.47-1.3,1.42,1.42,0,0,0-1.08-.44,1.4,1.4,0,0,0-1,.44A2.24,2.24,0,0,0,305.92,480.73Z"/><path class="cls-9" d="M317,482.52a2.1,2.1,0,0,1-.34,1.21,2.14,2.14,0,0,1-1,.76,4.66,4.66,0,0,1-1.64.26,3.93,3.93,0,0,1-1.57-.29,2.3,2.3,0,0,1-1-.7,1.45,1.45,0,0,1-.31-.84.66.66,0,0,1,.2-.48.69.69,0,0,1,.51-.2.58.58,0,0,1,.41.13,1.22,1.22,0,0,1,.27.37,2,2,0,0,0,.63.68,1.9,1.9,0,0,0,1,.22,1.39,1.39,0,0,0,.84-.23.64.64,0,0,0,.32-.52.7.7,0,0,0-.34-.65,4.16,4.16,0,0,0-1.12-.4,8,8,0,0,1-1.43-.46,2.24,2.24,0,0,1-.88-.63,1.44,1.44,0,0,1-.33-1,1.73,1.73,0,0,1,.3-1,2.1,2.1,0,0,1,.91-.73,3.41,3.41,0,0,1,1.43-.27,4.8,4.8,0,0,1,1.19.14,2.74,2.74,0,0,1,.88.37,1.66,1.66,0,0,1,.54.51,1,1,0,0,1,.18.55.65.65,0,0,1-.19.48.82.82,0,0,1-.56.18.68.68,0,0,1-.45-.15,3.67,3.67,0,0,1-.42-.44,1.64,1.64,0,0,0-.46-.41,1.54,1.54,0,0,0-.71-.14,1.38,1.38,0,0,0-.76.19.57.57,0,0,0-.31.49.52.52,0,0,0,.22.44,1.93,1.93,0,0,0,.61.29l1.05.27a5.45,5.45,0,0,1,1.29.46,2,2,0,0,1,.76.64A1.34,1.34,0,0,1,317,482.52Z"/><path class="cls-9" d="M318.75,477a.9.9,0,0,1-.6-.22.78.78,0,0,1-.26-.62.79.79,0,0,1,.26-.6.88.88,0,0,1,.6-.23.91.91,0,0,1,.59.21.76.76,0,0,1,.26.62.78.78,0,0,1-.25.61A.88.88,0,0,1,318.75,477Zm.85,1.76v4.92a1.1,1.1,0,0,1-.25.77.8.8,0,0,1-.62.27.76.76,0,0,1-.6-.27,1.13,1.13,0,0,1-.24-.77v-4.87a1.07,1.07,0,0,1,.24-.76.78.78,0,0,1,.6-.26.82.82,0,0,1,.62.26A1,1,0,0,1,319.6,478.79Z"/><path class="cls-9" d="M327.06,479.07V484a5.25,5.25,0,0,1-.18,1.46,2.46,2.46,0,0,1-.58,1,2.55,2.55,0,0,1-1.05.59,5.64,5.64,0,0,1-1.61.19,4.79,4.79,0,0,1-1.57-.24,2.77,2.77,0,0,1-1.06-.64,1.17,1.17,0,0,1-.38-.8.66.66,0,0,1,.21-.51.76.76,0,0,1,.51-.2.85.85,0,0,1,.66.33c.09.12.19.23.28.34a1.55,1.55,0,0,0,.33.3,1.3,1.3,0,0,0,.43.18,2.37,2.37,0,0,0,.57.06,2.25,2.25,0,0,0,1-.19,1.05,1.05,0,0,0,.51-.51,2.11,2.11,0,0,0,.17-.71c0-.25,0-.65,0-1.21a2.85,2.85,0,0,1-.91.83,2.49,2.49,0,0,1-1.23.29,2.57,2.57,0,0,1-1.49-.44,2.72,2.72,0,0,1-1-1.22,4.48,4.48,0,0,1-.35-1.82,4.25,4.25,0,0,1,.21-1.38,2.87,2.87,0,0,1,.6-1,2.41,2.41,0,0,1,.89-.64,2.72,2.72,0,0,1,1.11-.22,2.78,2.78,0,0,1,1.26.28,3,3,0,0,1,1,.87v-.23a1,1,0,0,1,.22-.69.73.73,0,0,1,.56-.24.68.68,0,0,1,.66.32A2.29,2.29,0,0,1,327.06,479.07Zm-4.94,2.16a2.34,2.34,0,0,0,.45,1.56,1.48,1.48,0,0,0,1.18.53,1.56,1.56,0,0,0,.8-.22,1.79,1.79,0,0,0,.61-.69,2.39,2.39,0,0,0,.24-1.11,2.55,2.55,0,0,0-.46-1.63,1.49,1.49,0,0,0-1.21-.58,1.44,1.44,0,0,0-1.17.56A2.5,2.5,0,0,0,322.12,481.23Z"/><path class="cls-9" d="M329.77,478.76V479a2.83,2.83,0,0,1,1-.87,2.73,2.73,0,0,1,2.43,0,1.92,1.92,0,0,1,.79.83,1.81,1.81,0,0,1,.22.68,7.57,7.57,0,0,1,.05.92v3.17a1.14,1.14,0,0,1-.23.77.84.84,0,0,1-1.23,0,1.13,1.13,0,0,1-.24-.77v-2.84a3,3,0,0,0-.23-1.29,1,1,0,0,0-.93-.44,1.37,1.37,0,0,0-.83.27,1.53,1.53,0,0,0-.55.74,5.07,5.07,0,0,0-.13,1.43v2.13a1.1,1.1,0,0,1-.24.78.81.81,0,0,1-.62.26.76.76,0,0,1-.6-.27,1.13,1.13,0,0,1-.24-.77v-4.92a1.08,1.08,0,0,1,.21-.73.74.74,0,0,1,.58-.24.81.81,0,0,1,.41.11.79.79,0,0,1,.29.31A1.17,1.17,0,0,1,329.77,478.76Z"/><path class="cls-9" d="M340.13,481.7H336.8a2.19,2.19,0,0,0,.23,1,1.59,1.59,0,0,0,1.44.9,2.45,2.45,0,0,0,.56-.07,2,2,0,0,0,.49-.23A3.61,3.61,0,0,0,340,483l.51-.47a.56.56,0,0,1,.38-.11.59.59,0,0,1,.42.14.51.51,0,0,1,.16.41,1,1,0,0,1-.18.54,2.25,2.25,0,0,1-.54.59,3.3,3.3,0,0,1-.92.47,4.09,4.09,0,0,1-1.27.19,3.42,3.42,0,0,1-2.55-.94,3.47,3.47,0,0,1-.91-2.54,4.24,4.24,0,0,1,.22-1.4,3.09,3.09,0,0,1,.66-1.11,2.83,2.83,0,0,1,1.06-.71,3.88,3.88,0,0,1,1.4-.24,3.33,3.33,0,0,1,1.71.42,2.73,2.73,0,0,1,1.07,1.09,2.83,2.83,0,0,1,.36,1.36.86.86,0,0,1-.37.83A2.27,2.27,0,0,1,340.13,481.7Zm-3.33-1h3.09a2.06,2.06,0,0,0-.47-1.3,1.42,1.42,0,0,0-1.08-.44,1.39,1.39,0,0,0-1,.44A2.24,2.24,0,0,0,336.8,480.73Z"/><path class="cls-9" d="M347.08,483.77v-.17a4,4,0,0,1-.68.64,2.68,2.68,0,0,1-.73.38,2.57,2.57,0,0,1-.85.13,2.54,2.54,0,0,1-2-1,3.27,3.27,0,0,1-.58-1.13,4.85,4.85,0,0,1-.2-1.41,3.68,3.68,0,0,1,.78-2.49,2.62,2.62,0,0,1,2.06-.89,2.88,2.88,0,0,1,1.24.25,3.6,3.6,0,0,1,1,.78v-2.51a1.3,1.3,0,0,1,.2-.8.74.74,0,0,1,.6-.26.75.75,0,0,1,.6.24,1.11,1.11,0,0,1,.21.73v7.51a1,1,0,0,1-.23.73.73.73,0,0,1-.58.25.77.77,0,0,1-.58-.26A1,1,0,0,1,347.08,483.77Zm-3.36-2.5a3,3,0,0,0,.22,1.18,1.61,1.61,0,0,0,.59.73,1.42,1.42,0,0,0,.82.25,1.56,1.56,0,0,0,.82-.23,1.72,1.72,0,0,0,.59-.72,2.88,2.88,0,0,0,.22-1.21,2.81,2.81,0,0,0-.22-1.17,1.76,1.76,0,0,0-.6-.75,1.46,1.46,0,0,0-.83-.26,1.35,1.35,0,0,0-.83.27,1.65,1.65,0,0,0-.57.76A2.91,2.91,0,0,0,343.72,481.27Z"/><path class="cls-9" d="M354,476.26v2.6a3.71,3.71,0,0,1,1-.76,2.54,2.54,0,0,1,1.23-.27,2.81,2.81,0,0,1,1.49.4,2.6,2.6,0,0,1,1,1.17,4.24,4.24,0,0,1,.36,1.81,4.87,4.87,0,0,1-.2,1.42,3.2,3.2,0,0,1-.57,1.12,2.5,2.5,0,0,1-.91.74,2.69,2.69,0,0,1-1.18.26,2.86,2.86,0,0,1-.73-.1,2,2,0,0,1-.59-.24,2.55,2.55,0,0,1-.42-.32,6.33,6.33,0,0,1-.45-.49v.17a1.06,1.06,0,0,1-.23.73.76.76,0,0,1-.59.25.73.73,0,0,1-.58-.25,1.11,1.11,0,0,1-.21-.73v-7.44a1.25,1.25,0,0,1,.21-.78.68.68,0,0,1,.58-.26.76.76,0,0,1,.61.25A1.1,1.1,0,0,1,354,476.26Zm.08,5.06a2.27,2.27,0,0,0,.47,1.56,1.48,1.48,0,0,0,1.21.55,1.38,1.38,0,0,0,1.11-.56,2.42,2.42,0,0,0,.47-1.6,3.09,3.09,0,0,0-.2-1.16,1.71,1.71,0,0,0-.55-.75,1.31,1.31,0,0,0-.83-.27,1.44,1.44,0,0,0-.86.27,1.68,1.68,0,0,0-.6.77A2.87,2.87,0,0,0,354.12,481.32Z"/><path class="cls-9" d="M361.3,485l.15-.38-2.1-5.28a2.21,2.21,0,0,1-.19-.66.84.84,0,0,1,.11-.41,1,1,0,0,1,.31-.3.87.87,0,0,1,.41-.11.69.69,0,0,1,.56.23,2.45,2.45,0,0,1,.33.67l1.44,4.2,1.37-3.9a5.16,5.16,0,0,1,.29-.75,1,1,0,0,1,.28-.36.76.76,0,0,1,.41-.09.71.71,0,0,1,.37.1.75.75,0,0,1,.28.28.81.81,0,0,1,.09.37,3,3,0,0,1-.08.34c0,.14-.08.29-.13.44L363,485.16a6.69,6.69,0,0,1-.56,1.21,1.82,1.82,0,0,1-.73.67,2.6,2.6,0,0,1-1.22.23,3,3,0,0,1-1.12-.16.58.58,0,0,1-.37-.59.55.55,0,0,1,.18-.45.72.72,0,0,1,.52-.16l.27,0a1,1,0,0,0,.28,0,1,1,0,0,0,.46-.09.73.73,0,0,0,.31-.3A4.61,4.61,0,0,0,361.3,485Z"/><path class="cls-9" d="M386,478h.41v-.51a3.43,3.43,0,0,1,.2-1.28,1.31,1.31,0,0,1,.69-.68,3.18,3.18,0,0,1,1.32-.22c1,0,1.5.24,1.5.73a.56.56,0,0,1-.16.41.5.5,0,0,1-.37.17l-.34,0a3.73,3.73,0,0,0-.41,0q-.46,0-.6.27a2,2,0,0,0-.12.78V478h.41c.65,0,1,.19,1,.59s-.08.45-.25.52a1.77,1.77,0,0,1-.72.12h-.41v4.51a1.07,1.07,0,0,1-.25.77.78.78,0,0,1-.62.27.77.77,0,0,1-.6-.27,1.11,1.11,0,0,1-.24-.77V479.2h-.47a.84.84,0,0,1-.58-.18.54.54,0,0,1-.21-.44c0-.41.28-.61.85-.61"/><path class="cls-9" d="M391.55,482.29v1.42a1.17,1.17,0,0,1-.24.78.84.84,0,0,1-.62.26.78.78,0,0,1-.61-.27,1.14,1.14,0,0,1-.24-.77V479c0-.76.28-1.14.83-1.14a.72.72,0,0,1,.62.26,1.63,1.63,0,0,1,.21.8,2.85,2.85,0,0,1,.62-.8,1.36,1.36,0,0,1,.86-.26,2.29,2.29,0,0,1,1,.26.81.81,0,0,1,.51.72.69.69,0,0,1-.22.51.65.65,0,0,1-.46.21,2.79,2.79,0,0,1-.46-.12,2,2,0,0,0-.63-.12.93.93,0,0,0-.61.2,1.29,1.29,0,0,0-.37.58,3.85,3.85,0,0,0-.18.92c0,.36-.05.8-.05,1.31"/><path class="cls-9" d="M399.38,481.7h-3.33a2.32,2.32,0,0,0,.23,1,1.66,1.66,0,0,0,.61.67,1.6,1.6,0,0,0,.83.23,1.94,1.94,0,0,0,.56-.08,1.64,1.64,0,0,0,.49-.22,3.61,3.61,0,0,0,.44-.33l.52-.47a.53.53,0,0,1,.37-.12.61.61,0,0,1,.43.15.51.51,0,0,1,.16.41,1.08,1.08,0,0,1-.18.53,2,2,0,0,1-.55.6,3.17,3.17,0,0,1-.92.47,4,4,0,0,1-1.27.19,3.42,3.42,0,0,1-2.55-.94,3.47,3.47,0,0,1-.91-2.54,4,4,0,0,1,.23-1.4,2.94,2.94,0,0,1,.65-1.11,2.79,2.79,0,0,1,1.06-.71,3.92,3.92,0,0,1,1.4-.25,3.34,3.34,0,0,1,1.71.43,2.67,2.67,0,0,1,1.07,1.09,2.8,2.8,0,0,1,.36,1.36.85.85,0,0,1-.37.83,2.27,2.27,0,0,1-1,.19m-3.33-1h3.09a2,2,0,0,0-.47-1.3,1.41,1.41,0,0,0-1.08-.44,1.37,1.37,0,0,0-1,.44,2.15,2.15,0,0,0-.5,1.3"/><path class="cls-9" d="M406.47,481.7h-3.33a2.19,2.19,0,0,0,.23,1,1.6,1.6,0,0,0,.61.67,1.57,1.57,0,0,0,.83.23,2,2,0,0,0,.56-.08,1.64,1.64,0,0,0,.49-.22,3.61,3.61,0,0,0,.44-.33l.51-.47a.56.56,0,0,1,.38-.12.6.6,0,0,1,.42.15.51.51,0,0,1,.16.41,1.08,1.08,0,0,1-.18.53,2,2,0,0,1-.54.6,3.3,3.3,0,0,1-.92.47,4.09,4.09,0,0,1-1.27.19,3.4,3.4,0,0,1-2.55-.94,3.47,3.47,0,0,1-.92-2.54,4.24,4.24,0,0,1,.23-1.4,3.09,3.09,0,0,1,.66-1.11,2.72,2.72,0,0,1,1.06-.71,3.88,3.88,0,0,1,1.4-.25,3.34,3.34,0,0,1,1.71.43,2.8,2.8,0,0,1,1.07,1.09,2.91,2.91,0,0,1,.36,1.36.87.87,0,0,1-.37.83,2.27,2.27,0,0,1-1,.19m-3.33-1h3.09a2.1,2.1,0,0,0-.47-1.3,1.44,1.44,0,0,0-1.08-.44,1.39,1.39,0,0,0-1.05.44,2.15,2.15,0,0,0-.49,1.3"/><path class="cls-9" d="M410.2,478.78v.2a3.2,3.2,0,0,1,1-.87,2.36,2.36,0,0,1,1.17-.28,2.85,2.85,0,0,1,1.45.4,2.89,2.89,0,0,1,1,1.19,4.1,4.1,0,0,1,.38,1.85,4.5,4.5,0,0,1-.22,1.45,3.17,3.17,0,0,1-.61,1.1,2.68,2.68,0,0,1-.91.69,2.73,2.73,0,0,1-1.13.24,2.34,2.34,0,0,1-1.23-.3,3.42,3.42,0,0,1-.95-.86v2.56c0,.75-.27,1.12-.82,1.12a.64.64,0,0,1-.63-.28,1.92,1.92,0,0,1-.16-.85v-7.36a1.07,1.07,0,0,1,.21-.72.83.83,0,0,1,1.17,0,1,1,0,0,1,.23.72m3.34,2.47a3.09,3.09,0,0,0-.2-1.16,1.73,1.73,0,0,0-.57-.74,1.39,1.39,0,0,0-.81-.26,1.54,1.54,0,0,0-1.19.55,2.47,2.47,0,0,0-.49,1.64,2.3,2.3,0,0,0,.49,1.58,1.49,1.49,0,0,0,1.19.57,1.39,1.39,0,0,0,.78-.25,1.65,1.65,0,0,0,.59-.74,3.05,3.05,0,0,0,.21-1.19"/><path class="cls-9" d="M417,477a.88.88,0,0,1-.61-.22.75.75,0,0,1-.25-.61.79.79,0,0,1,.26-.6.88.88,0,0,1,.6-.23.91.91,0,0,1,.59.21.76.76,0,0,1,.25.62.78.78,0,0,1-.24.61.87.87,0,0,1-.6.22m.84,1.76v4.93a1.09,1.09,0,0,1-.24.77.8.8,0,0,1-.62.27.78.78,0,0,1-.61-.27,1.18,1.18,0,0,1-.23-.77v-4.88a1.13,1.13,0,0,1,.23-.76.79.79,0,0,1,.61-.25.81.81,0,0,1,.62.25,1,1,0,0,1,.24.71"/><path class="cls-9" d="M423.31,484l-1.5-2.48-.93.88v1.35a1.06,1.06,0,0,1-.26.76.8.8,0,0,1-.6.27.73.73,0,0,1-.61-.27,1.14,1.14,0,0,1-.23-.77v-7.27a1.49,1.49,0,0,1,.22-.86.72.72,0,0,1,.62-.3.79.79,0,0,1,.63.27,1.2,1.2,0,0,1,.23.79v4.14l1.92-2a4.42,4.42,0,0,1,.54-.51.75.75,0,0,1,.45-.13.74.74,0,0,1,.54.2.66.66,0,0,1,.21.51c0,.25-.23.58-.69,1l-.91.83,1.75,2.74.28.47a.71.71,0,0,1,.08.3.89.89,0,0,1-.22.64.77.77,0,0,1-.58.24.69.69,0,0,1-.49-.17,5.07,5.07,0,0,1-.45-.61"/><path class="cls-9" d="M427,484.75a1,1,0,0,1-.67-.26,1,1,0,0,1,0-1.35.9.9,0,0,1,.66-.27,1,1,0,0,1,.68.27,1,1,0,0,1,0,1.35,1,1,0,0,1-.66.26"/><path class="cls-9" d="M435.48,482.64a1.43,1.43,0,0,1-.19.68,2.27,2.27,0,0,1-.58.69,3.13,3.13,0,0,1-1,.52,4,4,0,0,1-1.34.2,3.27,3.27,0,0,1-2.47-.92,3.44,3.44,0,0,1-.88-2.47,3.94,3.94,0,0,1,.41-1.85,2.88,2.88,0,0,1,1.17-1.25,3.67,3.67,0,0,1,1.83-.44,3.63,3.63,0,0,1,1.22.2,3.11,3.11,0,0,1,.94.5,2.32,2.32,0,0,1,.58.65,1.22,1.22,0,0,1,.2.65.67.67,0,0,1-.22.51.77.77,0,0,1-.55.22.59.59,0,0,1-.36-.11,1.71,1.71,0,0,1-.31-.36,2.69,2.69,0,0,0-.66-.71,1.43,1.43,0,0,0-.86-.23,1.48,1.48,0,0,0-1.22.58,2.64,2.64,0,0,0-.46,1.62,3.07,3.07,0,0,0,.12.88,2,2,0,0,0,.34.69,1.49,1.49,0,0,0,.54.43,1.66,1.66,0,0,0,.7.15,1.54,1.54,0,0,0,.88-.24,2.09,2.09,0,0,0,.65-.72,1.5,1.5,0,0,1,.33-.45.64.64,0,0,1,.45-.17.63.63,0,0,1,.51.24.76.76,0,0,1,.21.51"/><path class="cls-9" d="M442.84,481.28a4,4,0,0,1-.24,1.41,3,3,0,0,1-.69,1.1,3.13,3.13,0,0,1-1.07.71,3.93,3.93,0,0,1-1.41.25,3.62,3.62,0,0,1-1.39-.26,3,3,0,0,1-1.07-.71,3.21,3.21,0,0,1-.69-1.1,4.15,4.15,0,0,1-.23-1.4,4,4,0,0,1,.24-1.41,3,3,0,0,1,1.75-1.81,3.9,3.9,0,0,1,1.39-.24,3.73,3.73,0,0,1,1.41.25,3,3,0,0,1,1.76,1.81,3.92,3.92,0,0,1,.24,1.4m-1.71,0a2.6,2.6,0,0,0-.46-1.62,1.62,1.62,0,0,0-2.12-.32,1.57,1.57,0,0,0-.58.76,3.07,3.07,0,0,0-.21,1.18,3.18,3.18,0,0,0,.2,1.17,1.63,1.63,0,0,0,.59.76,1.46,1.46,0,0,0,.88.27,1.5,1.5,0,0,0,1.24-.59,2.55,2.55,0,0,0,.46-1.61"/><path class="cls-9" d="M449.33,481.41v2.26a1.19,1.19,0,0,1-.24.81.88.88,0,0,1-1.27,0,1.19,1.19,0,0,1-.24-.81V481a8.61,8.61,0,0,0,0-1,1.06,1.06,0,0,0-.24-.58.74.74,0,0,0-.61-.24,1.08,1.08,0,0,0-1.1.58,4,4,0,0,0-.27,1.65v2.3a1.16,1.16,0,0,1-.24.8.78.78,0,0,1-.63.28.81.81,0,0,1-.64-.28,1.16,1.16,0,0,1-.24-.8V478.8a1,1,0,0,1,.22-.73.73.73,0,0,1,.58-.25.82.82,0,0,1,.59.23.9.9,0,0,1,.23.65v.16a3.08,3.08,0,0,1,.95-.78,2.46,2.46,0,0,1,1.12-.25,2.28,2.28,0,0,1,1.11.25,2,2,0,0,1,.76.78,3,3,0,0,1,.93-.78,2.3,2.3,0,0,1,1.09-.25,2.5,2.5,0,0,1,1.2.27,1.81,1.81,0,0,1,.76.79,3.75,3.75,0,0,1,.21,1.46v3.32a1.19,1.19,0,0,1-.24.81.82.82,0,0,1-.64.27.81.81,0,0,1-.64-.28,1.16,1.16,0,0,1-.24-.8v-2.86a6.63,6.63,0,0,0-.05-.88,1,1,0,0,0-.25-.56.82.82,0,0,0-.63-.23,1.13,1.13,0,0,0-.64.21,1.34,1.34,0,0,0-.47.53,4.41,4.41,0,0,0-.19,1.53"/><path class="cls-9" d="M370,480.87h0Z"/><path class="cls-9" d="M370.12,481.41h0c0-.15-.06-.3-.08-.46C370.06,481.11,370.09,481.26,370.12,481.41Z"/><path class="cls-9" d="M370.68,483v0Z"/><path class="cls-9" d="M370.63,482.89l-.05-.09Z"/><path class="cls-9" d="M370.28,482a4.62,4.62,0,0,0,.3.76,5,5,0,0,1-.3-.76Z"/><path class="cls-9" d="M376.63,474.34a4.54,4.54,0,0,1,.85.08l.07-.51a5.32,5.32,0,0,0-1.78-.15l-.08-.27a.7.7,0,0,0,.55-.68.69.69,0,0,0-1.38,0,.7.7,0,0,0,.55.68l.08.3a7,7,0,0,0-1.92.57l.15.46a7.75,7.75,0,0,1,1.72-.4C375.94,474.37,376.32,474.34,376.63,474.34Z"/><path class="cls-9" d="M370.67,476.88h0l.08-.09-.21-.15-.32-.24a4.85,4.85,0,0,0-.92,1.35l-.06-.08a.61.61,0,0,0-.5-.19h0a.38.38,0,0,1-.28-.1.43.43,0,0,0,.1-.27.44.44,0,0,0-.44-.44.44.44,0,0,0,0,.88h.11a.67.67,0,0,0,.53.22.34.34,0,0,1,.28.1.45.45,0,0,1,.11.28h0a4.77,4.77,0,0,0-.21,1.76l.7,0a5,5,0,0,1,.24-1.46A6.71,6.71,0,0,1,370.67,476.88Z"/><path class="cls-9" d="M382.67,474.92a.44.44,0,0,0-.44.44.43.43,0,0,0,0,.11.7.7,0,0,0-.23.53.33.33,0,0,1-.1.29.34.34,0,0,1-.19.09,5.36,5.36,0,0,0-1.16-1.16l-.49.53a7.63,7.63,0,0,1,1.13,1.31,9.13,9.13,0,0,1,.75,1.32l.67-.32a10.53,10.53,0,0,0-.74-1.44.8.8,0,0,0,.22-.12.65.65,0,0,0,.19-.5.39.39,0,0,1,.1-.29.48.48,0,0,0,.27.09.44.44,0,0,0,0-.88Z"/><path class="cls-9" d="M380.92,481a14.69,14.69,0,0,1-4.45,1.32,16.34,16.34,0,0,1-2.25.15,18.46,18.46,0,0,1-2.34-.14,15.85,15.85,0,0,1-1.6-.28,5,5,0,0,0,.3.76v0l.05.09a.2.2,0,0,0,0,.08v0a5.23,5.23,0,0,0,.71,1,3.67,3.67,0,0,0,1.92,1.2h0a7.73,7.73,0,0,0,2.16.28,9.47,9.47,0,0,0,3.73-.77,6.19,6.19,0,0,0,2.14-1.75,5,5,0,0,0,.69-1.51,3.87,3.87,0,0,0,.09-1.2A9.28,9.28,0,0,1,380.92,481Z"/><path class="cls-9" d="M371,477.1a7.16,7.16,0,0,0-.74,1.48,5.46,5.46,0,0,0-.23,1.61h0a4.92,4.92,0,0,0,0,.67h0s0,.05,0,.08,0,.31.08.46a17.64,17.64,0,0,0,6.27.34,14.42,14.42,0,0,0,4.27-1.27,8.46,8.46,0,0,0,1.39-.82,9.13,9.13,0,0,0-1.14-2.39,5.44,5.44,0,0,0-3.47-2.49,5.2,5.2,0,0,0-.81-.07c-.3,0-.66,0-1.15.08a7.81,7.81,0,0,0-1.66.39,6.35,6.35,0,0,0-2.32,1.34l0,0A4.52,4.52,0,0,0,371,477.1Zm8.07-.44a1.15,1.15,0,1,1-1.15,1.14A1.14,1.14,0,0,1,379,476.66Zm-5.42-.05a1.85,1.85,0,1,1-1.85,1.85A1.85,1.85,0,0,1,373.61,476.61Z"/></g></g></svg>