<svg width="448" height="90" viewBox="0 0 448 90" fill="none" xmlns="http://www.w3.org/2000/svg">
<rect width="448" height="88" fill="#151515"/>
<path d="M112.936 68.192C110.376 68.192 109.096 67.488 109.096 66.08V25.12C109.096 23.712 110.376 23.008 112.936 23.008H115.176C117.736 23.008 119.016 23.712 119.016 25.12V66.08C119.016 67.488 117.736 68.192 115.176 68.192H112.936ZM131.381 68.128C128.821 68.128 127.541 67.4453 127.541 66.08V25.12C127.541 23.7547 128.821 23.072 131.381 23.072H134.133C135.157 23.072 136.01 23.2 136.693 23.456C137.376 23.6693 137.93 24.1173 138.357 24.8L152.757 47.008C153.61 48.2453 154.378 49.504 155.061 50.784L155.317 50.72C155.232 49.7387 155.189 48.288 155.189 46.368V25.12C155.189 23.7547 156.469 23.072 159.029 23.072H160.885C163.445 23.072 164.725 23.7547 164.725 25.12V66.08C164.725 67.4453 163.445 68.128 160.885 68.128H158.453C157.429 68.128 156.576 68.0213 155.893 67.808C155.21 67.552 154.656 67.0827 154.229 66.4L139.509 43.872C138.656 42.6347 137.888 41.376 137.205 40.096L136.949 40.16C137.034 41.1413 137.077 42.592 137.077 44.512V66.08C137.077 67.4453 135.797 68.128 133.237 68.128H131.381ZM193.061 68.512C185.893 68.512 180.581 66.656 177.125 62.944C173.712 59.1893 172.005 53.3653 172.005 45.472C172.005 30.2827 179.13 22.688 193.381 22.688C195.514 22.688 197.69 22.9227 199.909 23.392C202.128 23.8187 203.856 24.3947 205.093 25.12C206.202 25.76 206.757 26.4427 206.757 27.168C206.757 27.7653 206.522 28.5547 206.053 29.536C205.584 30.4747 205.008 31.328 204.325 32.096C203.685 32.8213 203.109 33.184 202.597 33.184C202.469 33.184 201.957 32.992 201.061 32.608C200.165 32.224 199.077 31.8827 197.797 31.584C196.517 31.2853 194.981 31.136 193.189 31.136C189.434 31.136 186.64 32.3307 184.805 34.72C183.013 37.1093 182.117 40.7147 182.117 45.536C182.117 55.264 185.765 60.128 193.061 60.128C194.981 60.128 196.645 59.936 198.053 59.552C199.461 59.168 200.826 58.6773 202.149 58.08C202.832 57.7387 203.301 57.568 203.557 57.568C204.197 57.568 204.794 57.9307 205.349 58.656C205.946 59.3813 206.416 60.2133 206.757 61.152C207.141 62.048 207.333 62.7093 207.333 63.136C207.333 64.2453 206.586 65.2267 205.093 66.08C203.685 66.8907 201.829 67.5093 199.525 67.936C197.221 68.32 195.066 68.512 193.061 68.512ZM216.174 68C215.278 68 214.617 67.808 214.19 67.424C213.806 66.9973 213.614 66.336 213.614 65.44V25.12C213.614 23.7547 214.894 23.072 217.454 23.072H219.63C222.19 23.072 223.47 23.7547 223.47 25.12V59.616H237.294C237.977 59.616 238.467 59.872 238.766 60.384C239.065 60.896 239.214 61.7067 239.214 62.816V64.8C239.214 65.9093 239.065 66.72 238.766 67.232C238.467 67.744 237.977 68 237.294 68H216.174ZM262.534 68.512C256.646 68.512 252.081 67.168 248.838 64.48C245.595 61.7493 243.974 57.9307 243.974 53.024V25.12C243.974 23.7547 245.254 23.072 247.814 23.072H249.99C252.55 23.072 253.83 23.7547 253.83 25.12V52.384C253.83 54.6453 254.641 56.5013 256.262 57.952C257.883 59.4027 259.974 60.128 262.534 60.128C265.094 60.128 267.185 59.4027 268.806 57.952C270.47 56.5013 271.302 54.6453 271.302 52.384V25.12C271.302 23.7547 272.582 23.072 275.142 23.072H277.254C279.814 23.072 281.094 23.7547 281.094 25.12V53.024C281.094 57.9307 279.473 61.7493 276.23 64.48C272.987 67.168 268.422 68.512 262.534 68.512ZM309.456 68.128C306.896 68.128 305.616 67.4453 305.616 66.08V25.12C305.616 23.7547 306.896 23.072 309.456 23.072H311.696C314.256 23.072 315.536 23.7547 315.536 25.12V40.928H332.816V25.12C332.816 23.7547 334.096 23.072 336.656 23.072H338.896C341.456 23.072 342.736 23.7547 342.736 25.12V66.08C342.736 67.4453 341.456 68.128 338.896 68.128H336.656C334.096 68.128 332.816 67.4453 332.816 66.08V49.376H315.536V66.08C315.536 67.4453 314.256 68.128 311.696 68.128H309.456ZM370.409 68.512C364.521 68.512 359.956 67.168 356.713 64.48C353.47 61.7493 351.849 57.9307 351.849 53.024V25.12C351.849 23.7547 353.129 23.072 355.689 23.072H357.865C360.425 23.072 361.705 23.7547 361.705 25.12V52.384C361.705 54.6453 362.516 56.5013 364.137 57.952C365.758 59.4027 367.849 60.128 370.409 60.128C372.969 60.128 375.06 59.4027 376.681 57.952C378.345 56.5013 379.177 54.6453 379.177 52.384V25.12C379.177 23.7547 380.457 23.072 383.017 23.072H385.129C387.689 23.072 388.969 23.7547 388.969 25.12V53.024C388.969 57.9307 387.348 61.7493 384.105 64.48C380.862 67.168 376.297 68.512 370.409 68.512ZM400.612 68C399.716 68 399.054 67.808 398.628 67.424C398.244 66.9973 398.052 66.336 398.052 65.44V25.76C398.052 24.864 398.244 24.224 398.628 23.84C399.054 23.4133 399.716 23.2 400.612 23.2H413.284C418.489 23.2 422.308 24.2027 424.74 26.208C427.172 28.2133 428.388 30.9867 428.388 34.528C428.388 36.6613 427.726 38.624 426.404 40.416C425.124 42.1653 423.481 43.4453 421.476 44.256L421.54 44.512C424.057 45.024 426.126 46.2827 427.748 48.288C429.369 50.2933 430.18 52.5333 430.18 55.008C430.18 59.1893 428.836 62.4107 426.148 64.672C423.502 66.8907 419.513 68 414.18 68H400.612ZM412.324 41.056C414.201 41.056 415.652 40.608 416.676 39.712C417.742 38.816 418.276 37.664 418.276 36.256C418.276 33.0987 416.334 31.52 412.452 31.52H407.908V41.056H412.324ZM414.18 59.616C416.057 59.616 417.508 59.168 418.532 58.272C419.556 57.376 420.068 56.096 420.068 54.432C420.068 52.768 419.47 51.5307 418.276 50.72C417.081 49.8667 415.374 49.44 413.156 49.44H407.908V59.616H414.18Z" fill="#E4E4E4"/>
<mask id="path-3-inside-1" fill="white">
<path fill-rule="evenodd" clip-rule="evenodd" d="M46.4581 44.8005C46.5682 45.0537 46.4522 45.3483 46.1989 45.4584L23.1987 55.4584C22.9455 55.5685 22.6509 55.4525 22.5408 55.1992C22.4307 54.946 22.5468 54.6514 22.8 54.5413L45.8002 44.5413C46.0535 44.4312 46.348 44.5473 46.4581 44.8005Z"/>
</mask>
<path d="M46.1989 45.4584L45.4015 43.6243L45.4015 43.6243L46.1989 45.4584ZM46.4581 44.8005L44.624 45.5979L44.624 45.5979L46.4581 44.8005ZM23.1987 55.4584L22.4013 53.6243L22.4013 53.6243L23.1987 55.4584ZM22.8 54.5413L22.0026 52.7072L22.0026 52.7072L22.8 54.5413ZM45.8002 44.5413L45.0028 42.7072L45.0028 42.7072L45.8002 44.5413ZM46.9964 47.2925C48.2626 46.742 48.8428 45.2693 48.2922 44.003L44.624 45.5979C44.2937 44.8382 44.6418 43.9546 45.4015 43.6243L46.9964 47.2925ZM23.9962 57.2925L46.9964 47.2925L45.4015 43.6243L22.4013 53.6243L23.9962 57.2925ZM20.7067 55.9967C21.2572 57.2629 22.73 57.8431 23.9962 57.2925L22.4013 53.6243C23.161 53.2939 24.0447 53.6421 24.375 54.4018L20.7067 55.9967ZM22.0026 52.7072C20.7364 53.2577 20.1562 54.7305 20.7067 55.9967L24.375 54.4018C24.7053 55.1615 24.3572 56.0452 23.5975 56.3755L22.0026 52.7072ZM45.0028 42.7072L22.0026 52.7072L23.5975 56.3755L46.5977 46.3755L45.0028 42.7072ZM48.2922 44.003C47.7417 42.7368 46.269 42.1567 45.0028 42.7072L46.5977 46.3755C45.8379 46.7058 44.9543 46.3577 44.624 45.5979L48.2922 44.003Z" fill="#E4E4E4" mask="url(#path-3-inside-1)"/>
<mask id="path-5-inside-2" fill="white">
<path fill-rule="evenodd" clip-rule="evenodd" d="M78.4976 41.3457C78.526 41.6204 78.3264 41.8661 78.0517 41.8945L49.051 44.8946C48.7764 44.923 48.5307 44.7234 48.5023 44.4487C48.4738 44.174 48.6735 43.9283 48.9481 43.8999L77.9488 40.8998C78.2235 40.8714 78.4692 41.0711 78.4976 41.3457Z"/>
</mask>
<path d="M78.0517 41.8945L78.2575 43.8839L78.2575 43.8839L78.0517 41.8945ZM78.4976 41.3457L80.487 41.1399L80.487 41.1399L78.4976 41.3457ZM49.051 44.8946L48.8452 42.9052L48.8452 42.9052L49.051 44.8946ZM48.5023 44.4487L50.4916 44.2429L48.5023 44.4487ZM48.9481 43.8999L48.7423 41.9105L48.7423 41.9105L48.9481 43.8999ZM77.9488 40.8998L77.743 38.9105L77.743 38.9105L77.9488 40.8998ZM78.2575 43.8839C79.6309 43.7418 80.629 42.5133 80.487 41.1399L76.5082 41.5515C76.4229 40.7275 77.0218 39.9904 77.8459 39.9052L78.2575 43.8839ZM49.2568 46.884L78.2575 43.8839L77.8459 39.9052L48.8452 42.9052L49.2568 46.884ZM46.5129 44.6545C46.6549 46.0279 47.8835 47.0261 49.2568 46.884L48.8452 42.9052C49.6693 42.82 50.4064 43.4189 50.4916 44.2429L46.5129 44.6545ZM48.7423 41.9105C47.369 42.0526 46.3708 43.2811 46.5129 44.6545L50.4916 44.2429C50.5769 45.067 49.978 45.8041 49.1539 45.8893L48.7423 41.9105ZM77.743 38.9105L48.7423 41.9105L49.1539 45.8893L78.1546 42.8892L77.743 38.9105ZM80.487 41.1399C80.3449 39.7666 79.1164 38.7684 77.743 38.9105L78.1546 42.8892C77.3306 42.9745 76.5934 42.3756 76.5082 41.5515L80.487 41.1399Z" fill="#E4E4E4" mask="url(#path-5-inside-2)"/>
<mask id="path-7-inside-3" fill="white">
<path fill-rule="evenodd" clip-rule="evenodd" d="M31.6344 28.0564C31.8228 27.8545 32.1392 27.8436 32.3411 28.032L47.3411 42.032C47.5429 42.2204 47.5539 42.5368 47.3654 42.7387C47.177 42.9406 46.8606 42.9515 46.6588 42.7631L31.6588 28.7631C31.4569 28.5747 31.446 28.2583 31.6344 28.0564Z"/>
</mask>
<path d="M32.3411 28.032L33.7057 26.5699L32.3411 28.032ZM31.6344 28.0564L33.0965 29.421L31.6344 28.0564ZM47.3411 42.032L48.7057 40.5699L48.7057 40.5699L47.3411 42.032ZM47.3654 42.7387L48.8275 44.1033L48.8276 44.1033L47.3654 42.7387ZM46.6588 42.7631L45.2941 44.2252L45.2941 44.2252L46.6588 42.7631ZM31.6588 28.7631L33.0234 27.301L33.0234 27.301L31.6588 28.7631ZM33.7057 26.5699C32.6963 25.6278 31.1144 25.6824 30.1723 26.6917L33.0965 29.421C32.5312 30.0266 31.5821 30.0594 30.9764 29.4941L33.7057 26.5699ZM48.7057 40.5699L33.7057 26.5699L30.9764 29.4941L45.9764 43.4941L48.7057 40.5699ZM48.8276 44.1033C49.7696 43.094 49.7151 41.512 48.7057 40.5699L45.9764 43.4941C45.3708 42.9289 45.3381 41.9797 45.9033 41.3741L48.8276 44.1033ZM45.2941 44.2252C46.3035 45.1673 47.8855 45.1127 48.8275 44.1033L45.9033 41.3741C46.4686 40.7684 47.4178 40.7357 48.0234 41.301L45.2941 44.2252ZM30.2941 30.2252L45.2941 44.2252L48.0234 41.301L33.0234 27.301L30.2941 30.2252ZM30.1723 26.6917C29.2302 27.7011 29.2847 29.2831 30.2941 30.2252L33.0234 27.301C33.629 27.8662 33.6617 28.8154 33.0965 29.421L30.1723 26.6917Z" fill="#E4E4E4" mask="url(#path-7-inside-3)"/>
<mask id="path-9-inside-4" fill="white">
<path fill-rule="evenodd" clip-rule="evenodd" d="M52.0893 21.5081C52.361 21.5575 52.5412 21.8178 52.4918 22.0895L48.4918 44.0895C48.4424 44.3611 48.1821 44.5413 47.9104 44.492C47.6387 44.4426 47.4585 44.1823 47.5079 43.9106L51.5079 21.9106C51.5573 21.6389 51.8176 21.4587 52.0893 21.5081Z"/>
</mask>
<path d="M52.4918 22.0895L50.5241 21.7317L52.4918 22.0895ZM52.0893 21.5081L51.7316 23.4758L51.7316 23.4758L52.0893 21.5081ZM48.4918 44.0895L50.4596 44.4472L50.4596 44.4472L48.4918 44.0895ZM47.9104 44.492L47.5527 46.4597L47.5527 46.4597L47.9104 44.492ZM47.5079 43.9106L49.4757 44.2683L47.5079 43.9106ZM51.5079 21.9106L53.4757 22.2683L53.4757 22.2683L51.5079 21.9106ZM54.4596 22.4472C54.7065 21.0888 53.8055 19.7873 52.4471 19.5403L51.7316 23.4758C50.9165 23.3276 50.3759 22.5468 50.5241 21.7317L54.4596 22.4472ZM50.4596 44.4472L54.4596 22.4472L50.5241 21.7317L46.5241 43.7317L50.4596 44.4472ZM47.5527 46.4597C48.9111 46.7067 50.2126 45.8057 50.4596 44.4472L46.5241 43.7317C46.6723 42.9166 47.4531 42.376 48.2682 42.5242L47.5527 46.4597ZM45.5402 43.5528C45.2932 44.9112 46.1942 46.2127 47.5527 46.4597L48.2682 42.5242C49.0833 42.6724 49.6239 43.4533 49.4757 44.2683L45.5402 43.5528ZM49.5402 21.5528L45.5402 43.5528L49.4757 44.2683L53.4757 22.2683L49.5402 21.5528ZM52.4471 19.5403C51.0887 19.2934 49.7872 20.1944 49.5402 21.5528L53.4757 22.2683C53.3275 23.0834 52.5466 23.624 51.7316 23.4758L52.4471 19.5403Z" fill="#E4E4E4" mask="url(#path-9-inside-4)"/>
<mask id="path-11-inside-5" fill="white">
<path fill-rule="evenodd" clip-rule="evenodd" d="M69.3845 27.0781C69.5609 27.2905 69.5316 27.6058 69.3192 27.7821L49.3191 44.3848C49.1066 44.5612 48.7914 44.5319 48.615 44.3194C48.4386 44.107 48.4679 43.7917 48.6804 43.6154L68.6804 27.0127C68.8929 26.8363 69.2081 26.8656 69.3845 27.0781Z"/>
</mask>
<path d="M69.3192 27.7821L70.5966 29.321L70.5966 29.321L69.3192 27.7821ZM69.3845 27.0781L67.8456 28.3555L67.8456 28.3555L69.3845 27.0781ZM49.3191 44.3848L48.0416 42.8459L48.0416 42.8459L49.3191 44.3848ZM48.615 44.3194L50.1539 43.042L48.615 44.3194ZM48.6804 43.6154L49.9578 45.1542L49.9578 45.1542L48.6804 43.6154ZM68.6804 27.0127L67.403 25.4738L67.403 25.4738L68.6804 27.0127ZM70.5966 29.321C71.659 28.4391 71.8053 26.863 70.9234 25.8006L67.8456 28.3555C67.3165 27.7181 67.4043 26.7724 68.0417 26.2433L70.5966 29.321ZM50.5965 45.9236L70.5966 29.321L68.0417 26.2433L48.0416 42.8459L50.5965 45.9236ZM47.0761 45.5969C47.958 46.6592 49.5342 46.8056 50.5965 45.9236L48.0416 42.8459C48.6791 42.3168 49.6247 42.4046 50.1539 43.042L47.0761 45.5969ZM47.4029 42.0765C46.3405 42.9584 46.1942 44.5345 47.0761 45.5969L50.1539 43.042C50.683 43.6794 50.5952 44.6251 49.9578 45.1542L47.4029 42.0765ZM67.403 25.4738L47.4029 42.0765L49.9578 45.1542L69.9579 28.5516L67.403 25.4738ZM70.9234 25.8006C70.0415 24.7382 68.4653 24.5919 67.403 25.4738L69.9579 28.5516C69.3205 29.0807 68.3748 28.9929 67.8456 28.3555L70.9234 25.8006Z" fill="#E4E4E4" mask="url(#path-11-inside-5)"/>
<mask id="path-13-inside-6" fill="white">
<path fill-rule="evenodd" clip-rule="evenodd" d="M49.2141 43.9459C49.4635 44.0646 49.5693 44.363 49.4506 44.6123L39.4506 65.612C39.3319 65.8613 39.0335 65.9672 38.7842 65.8485C38.5349 65.7298 38.429 65.4314 38.5478 65.1821L48.5477 44.1824C48.6665 43.933 48.9648 43.8272 49.2141 43.9459Z"/>
</mask>
<path d="M49.4506 44.6123L51.2563 45.4722L51.2563 45.4722L49.4506 44.6123ZM39.4506 65.612L37.6449 64.7521L37.6449 64.7521L39.4506 65.612ZM38.5478 65.1821L40.3535 66.042L40.3535 66.042L38.5478 65.1821ZM48.5477 44.1824L50.3535 45.0422L50.3535 45.0422L48.5477 44.1824ZM51.2563 45.4722C51.8499 44.2256 51.3206 42.7338 50.074 42.1402L48.3543 45.7516C47.6063 45.3955 47.2887 44.5004 47.6449 43.7524L51.2563 45.4722ZM41.2563 66.4719L51.2563 45.4722L47.6449 43.7524L37.6449 64.7521L41.2563 66.4719ZM37.9243 67.6542C39.1709 68.2478 40.6627 67.7185 41.2563 66.4719L37.6449 64.7521C38.0011 64.0042 38.8961 63.6866 39.6441 64.0428L37.9243 67.6542ZM36.742 64.3222C36.1484 65.5688 36.6778 67.0606 37.9243 67.6542L39.6441 64.0428C40.392 64.3989 40.7096 65.294 40.3535 66.042L36.742 64.3222ZM46.742 43.3225L36.742 64.3222L40.3535 66.042L50.3535 45.0422L46.742 43.3225ZM50.074 42.1402C48.8274 41.5466 47.3356 42.0759 46.742 43.3225L50.3535 45.0422C49.9973 45.7902 49.1022 46.1078 48.3543 45.7516L50.074 42.1402Z" fill="#E4E4E4" mask="url(#path-13-inside-6)"/>
<mask id="path-15-inside-7" fill="white">
<path fill-rule="evenodd" clip-rule="evenodd" d="M48.5694 45.7457C48.7099 45.5079 49.0165 45.4291 49.2543 45.5696L71.2542 58.5694C71.4919 58.7099 71.5707 59.0165 71.4303 59.2542C71.2898 59.492 70.9832 59.5708 70.7454 59.4303L48.7455 46.4305C48.5078 46.29 48.4289 45.9834 48.5694 45.7457Z"/>
</mask>
<path d="M49.2543 45.5696L48.2368 47.2914L49.2543 45.5696ZM71.2542 58.5694L70.2367 60.2913L70.2367 60.2913L71.2542 58.5694ZM71.4303 59.2542L73.1521 60.2717L73.1521 60.2717L71.4303 59.2542ZM70.7454 59.4303L69.728 61.1522L69.728 61.1522L70.7454 59.4303ZM48.7455 46.4305L49.763 44.7086L48.7455 46.4305ZM50.2717 43.8477C49.083 43.1453 47.55 43.5395 46.8476 44.7282L50.2913 46.7631C49.8698 47.4763 48.95 47.7129 48.2368 47.2914L50.2717 43.8477ZM72.2716 56.8476L50.2717 43.8477L48.2368 47.2914L70.2367 60.2913L72.2716 56.8476ZM73.1521 60.2717C73.8545 59.083 73.4603 57.55 72.2716 56.8476L70.2367 60.2913C69.5235 59.8698 69.287 58.95 69.7084 58.2368L73.1521 60.2717ZM69.728 61.1522C70.9167 61.8546 72.4497 61.4604 73.1521 60.2717L69.7084 58.2368C70.1298 57.5236 71.0497 57.287 71.7629 57.7085L69.728 61.1522ZM47.7281 48.1524L69.728 61.1522L71.7629 57.7085L49.763 44.7086L47.7281 48.1524ZM46.8476 44.7282C46.1452 45.9169 46.5394 47.4499 47.7281 48.1524L49.763 44.7086C50.4762 45.1301 50.7127 46.0499 50.2913 46.7631L46.8476 44.7282Z" fill="#E4E4E4" mask="url(#path-15-inside-7)"/>
<mask id="path-17-inside-8" fill="white">
<path fill-rule="evenodd" clip-rule="evenodd" d="M47.7953 43.9411C48.0473 43.8282 48.3431 43.9409 48.4561 44.1928L61.4561 73.1928C61.569 73.4448 61.4563 73.7407 61.2044 73.8536C60.9524 73.9666 60.6565 73.8539 60.5436 73.6019L47.5436 44.6019C47.4306 44.3499 47.5433 44.0541 47.7953 43.9411Z"/>
</mask>
<path d="M48.4561 44.1928L50.2811 43.3747L50.2811 43.3747L48.4561 44.1928ZM47.7953 43.9411L46.9772 42.1161L46.9772 42.1161L47.7953 43.9411ZM61.4561 73.1928L59.6311 74.011L59.6311 74.011L61.4561 73.1928ZM61.2044 73.8536L60.3863 72.0286L60.3862 72.0286L61.2044 73.8536ZM60.5436 73.6019L62.3686 72.7838L62.3686 72.7838L60.5436 73.6019ZM47.5436 44.6019L45.7186 45.42L45.7186 45.42L47.5436 44.6019ZM50.2811 43.3747C49.7163 42.1148 48.2371 41.5513 46.9772 42.1161L48.6134 45.7661C47.8575 46.105 46.9699 45.7669 46.6311 45.011L50.2811 43.3747ZM63.2811 72.3747L50.2811 43.3747L46.6311 45.011L59.6311 74.011L63.2811 72.3747ZM62.0225 75.6787C63.2824 75.1139 63.8459 73.6346 63.2811 72.3747L59.6311 74.011C59.2922 73.255 59.6303 72.3675 60.3863 72.0286L62.0225 75.6787ZM58.7186 74.42C59.2833 75.6799 60.7626 76.2434 62.0225 75.6786L60.3862 72.0286C61.1422 71.6897 62.0297 72.0278 62.3686 72.7838L58.7186 74.42ZM45.7186 45.42L58.7186 74.42L62.3686 72.7838L49.3686 43.7838L45.7186 45.42ZM46.9772 42.1161C45.7173 42.6809 45.1538 44.1601 45.7186 45.42L49.3686 43.7838C49.7075 44.5397 49.3694 45.4273 48.6134 45.7661L46.9772 42.1161Z" fill="#E4E4E4" mask="url(#path-17-inside-8)"/>
<path d="M29.351 54.2449C29.446 57.1894 27.136 59.6535 24.1915 59.7485C21.247 59.8435 18.783 57.5336 18.6879 54.5891C18.5929 51.6445 20.9029 49.1805 23.8474 49.0855C26.7919 48.9904 29.2559 51.3004 29.351 54.2449Z" fill="#E4E4E4" stroke="#E4E4E4"/>
<path d="M37.4761 29.3223C37.5547 31.7573 35.6444 33.795 33.2094 33.8736C30.7744 33.9522 28.7368 32.0419 28.6582 29.6069C28.5796 27.1719 30.4898 25.1343 32.9248 25.0557C35.3598 24.9771 37.3975 26.8873 37.4761 29.3223Z" fill="#E4E4E4" stroke="#E4E4E4"/>
<path d="M75.4761 59.3223C75.5547 61.7573 73.6444 63.795 71.2094 63.8736C68.7744 63.9522 66.7368 62.0419 66.6582 59.6069C66.5796 57.1719 68.4898 55.1343 70.9248 55.0557C73.3598 54.9771 75.3975 56.8873 75.4761 59.3223Z" fill="#E4E4E4" stroke="#E4E4E4"/>
<path d="M85.7828 41.4414C85.8992 45.0468 83.0708 48.0639 79.4654 48.1803C75.86 48.2966 72.8429 45.4682 72.7266 41.8628C72.6102 38.2574 75.4386 35.2404 79.044 35.124C82.6494 35.0076 85.6665 37.836 85.7828 41.4414Z" fill="#E4E4E4" stroke="#E4E4E4"/>
<path d="M57.4468 43.8308C57.6128 48.9754 53.5769 53.2805 48.4323 53.4466C43.2877 53.6126 38.9825 49.5767 38.8165 44.4321C38.6505 39.2874 42.6864 34.9823 47.831 34.8163C52.9756 34.6502 57.2808 38.6862 57.4468 43.8308Z" fill="#E4E4E4" stroke="#E4E4E4"/>
<path d="M34.5 64.8975H41.5V71.8975H34.5V64.8975Z" fill="#E4E4E4" stroke="#E4E4E4"/>
<path d="M48.5 16.5H55.5V23.5H48.5V16.5Z" fill="#E4E4E4" stroke="#E4E4E4"/>
<path d="M56.5 68.8975H63.5V75.8975H56.5V68.8975Z" fill="#E4E4E4" stroke="#E4E4E4"/>
<path d="M63.7449 29.7375L68.56 21.3975L73.3751 29.7375H63.7449Z" fill="#E4E4E4" stroke="#E4E4E4"/>
</svg>
